<?xml version="1.0" standalone="no"?><!-- Generator: Gravit.io --><svg xmlns="http://www.w3.org/2000/svg" xmlns:xlink="http://www.w3.org/1999/xlink" style="isolation:isolate" viewBox="0 0 1024 768" width="1024px" height="768px"><defs><clipPath id="_clipPath_xDO6I0sCLgB09cH7qCmNpYVFh4sFoqAX"><rect width="1024" height="768"/></clipPath></defs><g clip-path="url(#_clipPath_xDO6I0sCLgB09cH7qCmNpYVFh4sFoqAX)"><clipPath id="_clipPath_12myIhOmRbKEWwOY2vL58VDzyVGr0onv"><path d=" M 0 0 L 1000 0 L 1000 1000 L 0 1000 L 0 0 Z " fill="rgb(255,255,255)"/></clipPath><g clip-path="url(#_clipPath_12myIhOmRbKEWwOY2vL58VDzyVGr0onv)"><path d=" M 644.27 301.703 C 633.576 308.947 623.394 316.63 613.408 324.483 C 594.353 339.467 576.222 355.127 558.075 370.771 C 545.984 381.195 534.346 391.947 522.658 402.656 C 510.445 413.845 498.446 425.18 486.295 436.411 C 475.381 446.499 464.883 456.857 454.175 467.078 C 446.863 474.057 439.792 481.183 432.834 488.373 C 427.766 493.61 423.249 499.185 418.047 504.352 C 417.108 505.284 416.087 506.128 414.913 506.64 C 425.635 512.441 437.107 517.095 449.192 520.429 C 468.972 495.107 528.874 422.732 606.397 369.354 C 606.397 369.354 535.476 439.073 494.28 526.385 C 510.623 526.287 526.504 523.778 541.536 519.135 C 563.418 458.782 601.925 411.172 601.925 411.172 C 585.31 450.44 578.592 480.773 576.797 503.516 C 619.892 477.979 650.821 433.138 656.557 379.498 C 659.521 351.779 655.388 324.947 645.658 300.773 C 645.195 301.083 644.73 301.391 644.27 301.703 Z " fill="rgb(65,64,66)"/><path d=" M 388.278 455.882 C 383.41 444.273 378.195 432.739 372.535 421.317 C 367.182 410.514 361.607 399.772 355.475 389.2 C 348.686 377.498 341.333 365.988 333.421 354.688 C 332.083 352.775 330.548 350.934 329.276 348.988 C 324.247 411.864 355.42 469.706 405.775 501.323 C 404.291 496.534 402.292 491.836 400.601 487.084 C 396.873 476.605 392.619 466.232 388.278 455.882 Z " fill="rgb(0,167,157)"/><path d=" M 612.924 306.613 C 622.773 302.342 632.713 298.195 643.005 294.589 L 653.668 291.296 C 669.607 285.757 678.031 283.77 678.031 283.77 L 637.403 283.375 C 612.447 237.667 566.28 204.517 510.576 198.56 C 420.3 188.907 339.291 254.265 329.638 344.542 C 329.585 345.041 329.565 345.536 329.517 346.034 C 330.142 346.136 330.77 346.525 331.304 346.804 C 333.07 347.73 334.809 348.705 336.453 349.763 C 351.275 359.303 365.763 369.168 379.902 379.316 C 394.039 389.463 408.464 399.392 421.748 410.257 C 423.606 411.777 425.225 411.464 426.983 410.53 C 488.205 369.568 540.047 341.236 580.443 321.924 C 590.77 316.21 601.856 311.412 612.924 306.613 Z " fill="rgb(0,167,157)"/><path d=" M 700.649 244.814 L 707.933 267.233 L 731.505 267.233 L 712.435 281.088 L 719.719 303.506 L 700.649 289.651 L 681.579 303.506 L 688.863 281.088 L 669.793 267.233 L 693.365 267.233 L 700.649 244.814 Z " fill="rgb(65,64,66)"/><path d=" M 700.649 207.77 L 704.279 218.944 L 716.028 218.944 L 706.523 225.849 L 710.154 237.023 L 700.649 230.117 L 691.144 237.023 L 694.775 225.849 L 685.27 218.944 L 697.018 218.944 L 700.649 207.77 Z " fill="rgb(0,167,157)"/><path d=" M 746.885 244.814 L 750.516 255.988 L 762.264 255.988 L 752.759 262.893 L 756.39 274.067 L 746.885 267.161 L 737.38 274.067 L 741.011 262.893 L 731.506 255.988 L 743.255 255.988 L 746.885 244.814 Z " fill="rgb(0,167,157)"/><path d=" M 729.616 300.773 L 733.246 311.947 L 744.995 311.947 L 735.49 318.852 L 739.121 330.026 L 729.616 323.12 L 720.111 330.026 L 723.742 318.852 L 714.237 311.947 L 725.986 311.947 L 729.616 300.773 Z " fill="rgb(0,167,157)"/></g></g></svg>