<?xml version="1.0" standalone="no"?><!-- Generator: Gravit.io --><svg xmlns="http://www.w3.org/2000/svg" xmlns:xlink="http://www.w3.org/1999/xlink" style="isolation:isolate" viewBox="0 0 1366 768" width="1366px" height="768px"><defs><clipPath id="_clipPath_wZ25wKB3aB0s3S0BfeGLyJAaU3vJlm9r"><rect width="1366" height="768"/></clipPath></defs><g clip-path="url(#_clipPath_wZ25wKB3aB0s3S0BfeGLyJAaU3vJlm9r)"><path d=" M 355.584 403.843 L 355.584 343.776 L 324.405 343.776 L 324.405 329.496 L 403.442 329.496 L 403.442 343.776 L 372.263 343.776 L 372.263 403.843 L 355.584 403.843 Z " fill="rgb(40,169,160)"/><path d=" M 395.812 403.843 L 395.812 389.673 L 413.799 389.673 C 416.487 389.673 418.685 389.455 420.394 389.018 C 422.102 388.582 423.447 387.873 424.427 386.893 C 425.409 385.912 426.099 384.658 426.498 383.132 C 426.898 381.604 427.099 379.752 427.099 377.571 L 427.099 329.496 L 443.67 329.496 L 443.67 378.334 C 443.67 383.059 443.214 387.039 442.307 390.272 C 441.397 393.507 439.854 396.123 437.673 398.121 C 435.493 400.119 432.567 401.572 428.898 402.48 C 425.227 403.391 420.629 403.843 415.108 403.843 L 395.812 403.843 Z " fill="rgb(40,169,160)"/><path d=" M 472.665 372.121 L 472.665 390.326 L 518.996 390.326 C 522.12 390.326 524.355 389.908 525.701 389.071 C 527.045 388.238 527.717 386.658 527.717 384.33 L 527.717 379.752 C 527.717 376.699 527.119 374.666 525.92 373.647 C 524.719 372.63 522.595 372.121 519.542 372.121 L 472.665 372.121 Z  M 472.665 343.013 L 472.665 360.128 L 519.106 360.128 C 522.012 360.128 524.011 359.656 525.102 358.712 C 526.192 357.768 526.737 356.061 526.737 353.589 L 526.737 348.901 C 526.737 346.649 526.064 345.104 524.719 344.268 C 523.374 343.433 520.958 343.013 517.471 343.013 L 472.665 343.013 Z  M 456.095 329.496 L 518.779 329.496 C 522.992 329.496 526.591 329.787 529.571 330.367 C 532.55 330.951 534.967 331.912 536.821 333.257 C 538.673 334.604 540.036 336.347 540.909 338.49 C 541.781 340.636 542.217 343.27 542.217 346.393 L 542.217 352.498 C 542.217 356.858 541.454 359.983 539.927 361.873 C 538.401 363.763 536.475 365.035 534.15 365.688 C 535.458 365.979 536.675 366.436 537.801 367.052 C 538.928 367.669 539.89 368.561 540.69 369.723 C 541.49 370.886 542.108 372.393 542.544 374.246 C 542.98 376.099 543.197 378.408 543.197 381.168 L 543.197 387.71 C 543.197 390.69 542.779 393.199 541.943 395.233 C 541.108 397.268 539.764 398.921 537.911 400.192 C 536.057 401.465 533.641 402.39 530.661 402.972 C 527.68 403.554 524.083 403.843 519.869 403.843 L 456.095 403.843 L 456.095 329.496 Z " fill="rgb(40,169,160)"/><path d=" M 595.087 403.843 L 595.087 389.781 L 651.556 389.781 C 654.537 389.781 656.68 389.363 657.989 388.528 C 659.297 387.692 659.95 386.002 659.95 383.458 L 659.95 379.425 C 659.95 377.1 659.297 375.445 657.989 374.464 C 656.68 373.485 654.572 372.994 651.666 372.994 L 616.235 372.994 C 612.093 372.994 608.66 372.611 605.934 371.847 C 603.21 371.084 601.045 369.923 599.447 368.36 C 597.849 366.798 596.74 364.835 596.122 362.473 C 595.504 360.112 595.197 357.332 595.197 354.134 L 595.197 350.425 C 595.197 346.649 595.594 343.414 596.396 340.725 C 597.194 338.035 598.43 335.873 600.102 334.238 C 601.773 332.602 603.953 331.404 606.642 330.641 C 609.331 329.876 612.529 329.496 616.235 329.496 L 639.347 329.496 L 639.347 343.559 L 617.763 343.559 C 615.218 343.559 613.347 344.05 612.148 345.029 C 610.949 346.011 610.35 347.992 610.35 350.972 L 610.35 353.369 C 610.35 355.696 610.894 357.349 611.985 358.33 C 613.075 359.311 614.964 359.802 617.653 359.802 L 652.429 359.802 C 656.571 359.802 660.078 360.147 662.949 360.839 C 665.82 361.528 668.163 362.636 669.98 364.164 C 671.797 365.688 673.105 367.651 673.905 370.05 C 674.705 372.447 675.104 375.32 675.104 378.662 L 675.104 384.548 C 675.104 388.037 674.705 391 673.905 393.433 C 673.105 395.869 671.797 397.848 669.98 399.375 C 668.163 400.901 665.82 402.028 662.949 402.754 C 660.078 403.481 656.571 403.843 652.429 403.843 L 595.087 403.843 Z " fill="rgb(77,76,78)"/><path d=" M 701.376 375.5 C 701.376 378.77 702.084 381.042 703.501 382.315 C 704.918 383.585 707.298 384.222 710.642 384.222 L 746.943 384.222 L 746.943 344.759 L 762.751 344.759 L 762.751 402.754 C 762.751 409.366 761.115 414.146 757.844 417.088 C 754.574 420.033 749.233 421.504 741.819 421.504 L 718.164 421.504 L 718.164 408.204 L 740.403 408.204 C 742.654 408.204 744.309 407.77 745.363 406.898 C 746.415 406.026 746.943 404.352 746.943 401.881 L 746.943 397.084 L 709.66 397.084 C 705.227 397.084 701.466 396.667 698.377 395.83 C 695.288 394.998 692.78 393.705 690.856 391.962 C 688.929 390.218 687.531 388.037 686.658 385.421 C 685.786 382.804 685.35 379.716 685.35 376.153 L 685.35 344.759 L 701.376 344.759 L 701.376 375.5 Z " fill="rgb(77,76,78)"/><path d=" M 835.68 403.843 L 835.68 370.923 C 835.68 368.451 835.479 366.436 835.08 364.871 C 834.681 363.308 833.99 362.074 833.009 361.164 C 832.028 360.257 830.681 359.621 828.976 359.257 C 827.267 358.895 825.105 358.712 822.489 358.712 L 804.828 358.712 C 802.284 358.712 800.158 358.895 798.452 359.257 C 796.743 359.621 795.38 360.257 794.363 361.164 C 793.344 362.074 792.636 363.308 792.237 364.871 C 791.838 366.436 791.638 368.451 791.638 370.923 L 791.638 403.843 L 775.394 403.843 L 775.394 370.376 C 775.394 365.653 775.848 361.655 776.757 358.386 C 777.665 355.113 779.21 352.481 781.39 350.481 C 783.571 348.483 786.477 347.03 790.111 346.121 C 793.745 345.214 798.288 344.759 803.739 344.759 L 823.47 344.759 C 828.992 344.759 833.572 345.214 837.206 346.121 C 840.839 347.03 843.747 348.483 845.926 350.481 C 848.107 352.481 849.65 355.113 850.56 358.386 C 851.469 361.655 851.923 365.653 851.923 370.376 L 851.923 403.843 L 835.68 403.843 Z " fill="rgb(77,76,78)"/><path d=" M 924.634 362.199 C 924.634 360.237 924.145 358.929 923.163 358.276 C 922.182 357.621 920.455 357.294 917.985 357.294 L 890.95 357.294 C 888.914 357.294 887.205 357.386 885.826 357.567 C 884.443 357.75 883.335 358.166 882.501 358.82 C 881.664 359.475 881.064 360.419 880.702 361.655 C 880.337 362.891 880.156 364.563 880.156 366.671 L 880.156 369.83 L 924.634 369.83 L 924.634 362.199 Z  M 880.156 380.296 L 880.156 383.022 C 880.156 384.839 880.301 386.292 880.592 387.382 C 880.882 388.473 881.41 389.328 882.173 389.944 C 882.937 390.563 883.954 390.981 885.226 391.197 C 886.497 391.416 888.077 391.526 889.968 391.526 L 909.154 391.526 L 909.154 403.843 L 889.968 403.843 C 880.592 403.843 873.906 402.063 869.91 398.502 C 865.912 394.942 863.914 389.235 863.914 381.388 L 863.914 367.759 C 863.914 363.472 864.33 359.856 865.167 356.914 C 866.002 353.97 867.457 351.608 869.528 349.828 C 871.6 348.048 874.342 346.759 877.758 345.957 C 881.173 345.158 885.499 344.759 890.731 344.759 L 919.293 344.759 C 923.508 344.759 927.014 345.158 929.813 345.957 C 932.61 346.759 934.828 347.865 936.463 349.281 C 938.098 350.699 939.243 352.408 939.897 354.405 C 940.55 356.406 940.879 358.567 940.879 360.893 L 940.879 380.296 L 880.156 380.296 Z " fill="rgb(77,76,78)"/><path d=" M 952.108 403.843 L 952.108 369.613 C 952.108 365.181 952.615 361.401 953.634 358.276 C 954.651 355.153 956.267 352.591 958.484 350.591 C 960.702 348.593 963.554 347.121 967.043 346.175 C 970.532 345.231 974.783 344.759 979.798 344.759 L 990.373 344.759 L 990.373 357.949 L 980.234 357.949 C 977.979 357.949 976.092 358.132 974.564 358.494 C 973.039 358.858 971.821 359.475 970.913 360.347 C 970.004 361.22 969.349 362.418 968.951 363.944 C 968.551 365.472 968.351 367.397 968.351 369.723 L 968.351 403.843 L 952.108 403.843 Z " fill="rgb(77,76,78)"/><path d=" M 1059.378 368.632 C 1059.378 364.707 1058.614 362.054 1057.088 360.675 C 1055.562 359.294 1052.799 358.602 1048.803 358.602 L 1023.293 358.602 C 1019.514 358.602 1016.933 359.311 1015.553 360.729 C 1014.173 362.147 1013.482 364.817 1013.482 368.742 L 1013.482 376.481 C 1013.482 378.08 1013.645 379.388 1013.973 380.405 C 1014.3 381.425 1014.845 382.242 1015.608 382.858 C 1016.371 383.477 1017.369 383.895 1018.606 384.111 C 1019.841 384.33 1021.403 384.438 1023.293 384.438 L 1059.378 384.438 L 1059.378 368.632 Z  M 1030.161 421.504 L 1030.161 408.204 L 1052.727 408.204 C 1055.126 408.204 1056.832 407.731 1057.851 406.789 C 1058.868 405.842 1059.378 404.208 1059.378 401.881 L 1059.378 397.084 L 1022.313 397.084 C 1017.805 397.084 1013.973 396.722 1010.811 395.996 C 1007.65 395.27 1005.088 394.125 1003.126 392.561 C 1001.163 391 999.747 388.964 998.875 386.457 C 998.002 383.949 997.566 380.916 997.566 377.352 L 997.566 368.306 C 997.566 363.8 997.948 360.039 998.71 357.022 C 999.473 354.007 1000.817 351.589 1002.743 349.772 C 1004.668 347.957 1007.285 346.666 1010.594 345.903 C 1013.899 345.139 1018.061 344.759 1023.075 344.759 L 1049.457 344.759 C 1054.325 344.759 1058.412 345.194 1061.721 346.067 C 1065.027 346.938 1067.679 348.319 1069.679 350.208 C 1071.678 352.099 1073.094 354.533 1073.931 357.513 C 1074.765 360.494 1075.185 364.091 1075.185 368.306 L 1075.185 402.754 C 1075.185 409.366 1073.55 414.146 1070.279 417.088 C 1067.008 420.033 1061.666 421.504 1054.254 421.504 L 1030.161 421.504 Z " fill="rgb(77,76,78)"/><path d=" M 1102.219 375.5 C 1102.219 378.77 1102.927 381.042 1104.345 382.315 C 1105.761 383.585 1108.141 384.222 1111.486 384.222 L 1147.787 384.222 L 1147.787 344.759 L 1163.595 344.759 L 1163.595 402.754 C 1163.595 409.366 1161.958 414.146 1158.688 417.088 C 1155.418 420.033 1150.077 421.504 1142.663 421.504 L 1119.008 421.504 L 1119.008 408.204 L 1141.246 408.204 C 1143.498 408.204 1145.152 407.77 1146.206 406.898 C 1147.259 406.026 1147.787 404.352 1147.787 401.881 L 1147.787 397.084 L 1110.504 397.084 C 1106.07 397.084 1102.309 396.667 1099.221 395.83 C 1096.131 394.998 1093.624 393.705 1091.699 391.962 C 1089.773 390.218 1088.374 388.037 1087.502 385.421 C 1086.63 382.804 1086.194 379.716 1086.194 376.153 L 1086.194 344.759 L 1102.219 344.759 L 1102.219 375.5 Z " fill="rgb(77,76,78)"/></g></svg>